<?xml version="1.0" encoding="UTF-8"?>
<svg version="1.1" viewBox="0 0 2000 2000" width="1280" height="1280" xmlns="http://www.w3.org/2000/svg">
<path transform="translate(0)" d="m0 0h2e3v2e3h-2e3z" fill="#FDFDFD"/>
<path transform="translate(326,744)" d="m0 0h274l8 7 7 8 7 7 3 5 1 63 188 1 3 5v177l-1 7-2 2-9 1h-179v157l-1 52-3 7-9 10-7 7-8 5-11 1h-248l-13-1-8-8-8-7-8-8-2-10v-458l3-7 7-8 6-6h2v-2h2l2-4z" fill="#C138A1"/>
<path transform="translate(330,754)" d="m0 0 62 1 8 8 9 11 9 10 4 4h81l7-6 7-8 10-11 7-8h63l12 13 5 5 1 4v56l-4 2-81 1-1 5-1 118-5 1-125 1-14 3-14 7-9 7-10 13-5 11-2 8-1 11v101l-1 7-1 1h-29l-1-2v-353l6-8z" fill="#FEFEFE"/>
<path transform="translate(539,846)" d="m0 0h267l1 169-1 1h-188v-3l3-4h2l2-4 5-7 2-5 1-7-2-9-8-11-4-3-7-2-71-1-2-2z" fill="#FEFEFE"/>
<path transform="translate(397,971)" d="m0 0h215l6 4 4 5 1 7-3 9-8 8-11 7-10 4-15 1h-80l-1-2-1-11-8 1-1 7-1 119h-81l-1-1v-82l-10 1-1 81-1 1h-35l-2-2v-113l3-12 6-11 9-10 11-7 9-3z" fill="#FEFEFE"/>
<path transform="translate(312,1181)" d="m0 0h301l2 2v49l-3 7-12 13-4 3-263 1-5-2-15-16-2-3v-53z" fill="#FEFEFE"/>
<path transform="translate(496,1027)" d="m0 0h118l1 2v135l-2 5h-301l-1-2v-25l1-1h239v-11h-55l-1-1v-101z" fill="#FEFEFE"/>
<path transform="translate(431,834)" d="m0 0h9l9 2 10 6 8 7 6 11 3 13v35l-3 13-5 9-3 5h-2v2l-10 7-13 3h-8l-15-4-8-6-6-7-6-13-2-10-1-12v-12l2-17 5-13 9-10 7-5z" fill="#FEFEFE"/>
<path transform="translate(1091,990)" d="m0 0h34l6 7 16 26 12 19 8 12 1 1v-47l-11-1-2-1v-16h45l2 1v14l-2 2-8 1-1 86h-24l-4-4-29-44-9-13v-2h-2v47l13 1v15h-46v-11l1-4 9-1v-71l-10-1-1-2 1-13z" fill="#020202"/>
<path transform="translate(989,990)" d="m0 0h53l13 2 10 4 9 7 4 6 2 7v9l-3 10-4 6-9 8 3 9 8 16 4 4 5 1v15h-30l-3-8-8-29-1-2-18-1v24l10 1v15h-46l-1-2v-12l1-2 10-1v-68l-10-3v-15z" fill="#020202"/>
<path transform="translate(1337,1014)" d="m0 0h37l3 1v15l-7 1 5 25v3l2-1 13-36 4-8h13l2 1 7 19 8 24v2h2l4-18 4-11-9-1-1-3 1-12 1-1h34l5 1-1 15h-8l-2 8-17 53-2 3h-19l-3-5-9-24-4-10-3 9-10 27-3 3h-20l-4-9-14-53-10-2v-15z" fill="#020202"/>
<path transform="translate(1610,982)" d="m0 0h35l1 7 1 56 10-9 4-2v-3l-5-3v-13l1-1h39l4 1v13l-1 2-9 4-16 13 2 5 16 21 9 8 1 2v7l-2 4h-39v-9l2-6 1-2-3-5-5-8-4 1-5 6-1 6 7 2v15h-41v-15l7-1 1-1v-78l-10-2z" fill="#020202"/>
<path transform="translate(932,990)" d="m0 0 16 1 16 5 11 6 2 2v22h-18l-4-10-5-4-5-1h-14l-8 3-6 7-4 10-1 7v9l2 11 4 8 7 6 6 2h13l10-1v-13l-2-1-9-1v-18h36l1 36-1 8-6 4-13 4-11 2h-21l-12-3-10-5-9-8-7-12-3-11v-22l3-12 6-12 7-8 10-6 11-4z" fill="#020202"/>
<path transform="translate(1503,1014)" d="m0 0 13 1 11 4 9 7 6 9 3 12v14l-3 12-6 10-7 6-9 4-4 1h-17l-11-4-6-4-7-8-5-12-1-7v-12l3-11 5-9 8-7 11-5z" fill="#020202"/>
<path transform="translate(420,1195)" d="m0 0h88l2 4v36l-2 4-2 1h-85l-5-3-1-4v-32l2-5z" fill="#C138A1"/>
<path transform="translate(1239,1014)" d="m0 0h9l9 2 10 6 6 9 2 5 1 6v20l-42 1 1 4 4 5 5 2h9l17-2 3 8 1 6-5 3-10 4-4 1h-18l-11-4-8-6-6-8-4-11v-21l4-12 6-8 9-7z" fill="#020202"/>
<path transform="translate(431,823)" d="m0 0h10l16 4 12 7 10 12 6 12 2 7 1 10v26l-1 15-4 12-7 11-8 8-10 6-9 3-5 1h-16l-12-3-11-6-10-9-7-12-3-9-1-6v-41l3-14 5-10 8-10 8-6 10-5zm0 11-16 5-10 9-6 9-3 9-2 17v12l2 18 4 11 6 10 9 8 12 4 5 1h8l15-4 8-6v-2h2l8-14 3-13v-35l-4-16-7-10-10-8-9-4-6-1z" fill="#C138A1"/>
<path transform="translate(1293,995)" d="m0 0h25l1 2v16l12 1v17l-3 1h-9v41l11 1 1 1v18l-2 1h-17l-9-4-5-4-3-5-1-5-1-27v-18h-8l-1-1v-14l2-2h7z" fill="#020202"/>
<path transform="translate(1555,1014)" d="m0 0h33l1 2-1 8 5-3 6-6 4-1h10l-1 23-1 1-17 2-3 1v37l7 1v15h-42v-15l8-1v-45l-7-2-3-1v-15z" fill="#020202"/>
<path transform="translate(412,754)" d="m0 0 106 1-2 4-11 13-4 5h-77l-11-13-6-7v-2z" fill="#FEFEFE"/>
<path transform="translate(426,1206)" d="m0 0h73l1 1v22h-74l-1-1v-18z" fill="#FEFEFE"/>
<path transform="translate(577,929)" d="m0 0h132l1 1v11h-133l-1-5z" fill="#C138A1"/>
<path transform="translate(706,884)" d="m0 0h69l1 6v5l-6 2h-94l-11-1v-11z" fill="#C138A1"/>
<path transform="translate(665,974)" d="m0 0h110l1 1v9l-1 1h-110z" fill="#C138A1"/>
<path transform="translate(1504,1034)" d="m0 0 9 1 5 5 2 4 1 6v9l-2 8-6 7-2 1h-8l-5-3-3-6-1-4v-16l3-7 4-4z" fill="#FBF5FA"/>
<path transform="translate(1024,1010)" d="m0 0h19l7 2 4 5 1 2v8l-5 6-2 1h-24l-1-1v-15z" fill="#FBF6FA"/>
<path transform="translate(586,884)" d="m0 0h44l1 1v11l-1 1h-50l-3-1v-11z" fill="#C138A1"/>
<path transform="translate(744,929)" d="m0 0h31v11l-1 1h-30l-2-2v-8z" fill="#C138A1"/>
<path transform="translate(1241,1033)" d="m0 0h7l5 5 2 6-1 2h-21l-1-3 5-8z" fill="#F9EFF7"/>
</svg>
