<?xml version="1.0" encoding="UTF-8"?>
<svg version="1.1" viewBox="0 0 2000 2000" width="1280" height="1280" xmlns="http://www.w3.org/2000/svg">
<path transform="translate(0)" d="m0 0h2e3v2e3h-2e3z" fill="#FCEDEC"/>
<path transform="translate(839,672)" d="m0 0h22l7 3 6 15 4 13 6 17 4 11 5 15 3 8 7 20 5 12 12 36 15 43 5 14v3h2l2 2 5-29 4-12 7-13 13-16 9-8 13-8 14-6 14-4h20l5 3 2 5h2l2 7h2l7 15v2h2l6 13v2h2l5 11v2h2l2 4v3h2l4 9v2h2v4h2l3 6v3h2l1 6h2l3 8v2l3 1 4 10 12 22 8 15v2h2v2h2v-9l3-20 5-13 7-9 8-7 13-6 6-1h13l10 3 10 5 10 10 6 10 3 10v15l-9 71-4 17-5 13-8 13-9 11-9 8-11 7-14 6-6 2-7 1h-22l-6-2-4-10-7-13v-2h-2l-3-7-12-22v-2h-2l-5-11v-2h-2l-4-9v-2h-2l-3-9h-2l-4-9v-2h-2l-5-11v-2h-2l-8-16-14-27-1-1-4 33-5 48-3 15-8 18-7 11-11 12-11 9-17 9-12 4-6 1h-24l-5-2-4-15-13-38-15-42-13-37-4-9-4-13-15-43-5-14-1-1-6 50-14 126-5 15-10 13-9 6-10 4-6 1h-12l-12-4-10-6-9-9-6-12-2-9v-14l11-94 16-140 7-56 5-16 7-14 8-12 10-10 14-9 14-6z" fill="#F7769E"/>
<path transform="translate(839,672)" d="m0 0h22l7 3 1 3-1 1-9 80-10 86-1 9v17h-1l-6 50-14 126-5 15-10 13-9 6-10 4-6 1h-12l-12-4-10-6-9-9-6-12-2-9v-14l11-94 16-140 7-56 5-16 7-14 8-12 10-10 14-9 14-6z" fill="#F7769E"/>
<path transform="translate(868,678)" d="m0 0 2 2 4 10 4 13 6 17 4 11 5 15 3 8 7 20 5 12 12 36 15 43 7 21 2 7v12l-7 61-5 43-4 34-4 26-2 7-3-4-6-16-14-40-15-42-11-31-3-9-22-62-1-4v-14l7-61 10-88 3-26z" fill="#9A6995"/>
<path transform="translate(1176,882)" d="m0 0h13l10 3 10 5 10 10 6 10 3 10v15l-9 71-4 17-5 13-8 13-9 11-9 8-11 7-14 6-6 2-7 1h-22l-6-2 5-44 6-45 4-39-2-9 1 2h2v-9l3-20 5-13 7-9 8-7 13-6z" fill="#F7769E"/>
<path transform="translate(1063,1210)" d="m0 0h5l3 4 7 24 11 41 1 2 15-60 4-10 13-1h28l3 5 5 16 10 43 2 7h1l5-21 12-42 3-7h39l-1 10-9 31-7 25-5 18-7 24-4 10-2 2h-43l-3-3-6-20-7-25-5-20h-2l-4 17-9 32-6 17-2 2h-43l-4-5-7-24-4-17-3-9-7-25-8-32-1-8z" fill="#F27470"/>
<path transform="translate(1292,1207)" d="m0 0h32l18 5 11 6 10 9 5 5 7 13 4 17v20l-4 16-4 8h-2v3h-2l-2 4-5 6h-2v2l-9 5-14 7-10 3-7 1h-22l-17-4-17-9-6-4-7-8-8-13-4-14-1-7v-17l4-16 5-10 6-8 7-6 9-6 16-6z" fill="#F27470"/>
<path transform="translate(1045,790)" d="m0 0 4 2 1 4h2l2 7h2l7 15v2h2l6 13v2h2l5 11v2h2l2 4v3h2l4 9v2h2v4h2l3 6v3h2l1 6h2l3 8v2l3 1 4 10 12 22 9 17 3 9-4 39-9 69-2 18-3-4-9-17v-2h-2l-3-7-12-22v-2h-2l-5-11v-2h-2l-4-9v-2h-2l-3-9h-2l-4-9v-2h-2l-5-11v-2h-2l-8-16-14-27-2-4v-14l9-81z" fill="#9A6995"/>
<path transform="translate(1399,1211)" d="m0 0h83l17 5 10 6 7 6 7 14 1 5v9l-3 7-6 8-9 6-4 2 1 4 4 2v2l3 1 7 11 9 16 6 13v3h-40l-6-8-3-6-7-12-6-11-3-2-31-1v40h-37l-1-1-1-8v-92l1-18z" fill="#F27470"/>
<path transform="translate(482,1211)" d="m0 0h83l17 5 9 5 8 7 6 10 2 7v13l-7 11-7 6-6 3h-2l2 4 5 5 8 11 13 24 2 9h-39l-4-4v-3h-2l-6-11-6-10-4-8-1-3h-34l1 39h-38l-1-1v-118z" fill="#F2746F"/>
<path transform="translate(630,1211)" d="m0 0h40l2 4h2l10 15v2h2l13 20 10 15v2h2l6 8 1-65 1-1h37l1 3v102l-1 15h-39l-5-5-9-12-20-30-8-11v-2h-2l-4-6-1 51-1 15h-37l-1-3v-115z" fill="#F27470"/>
<path transform="translate(382,1207)" d="m0 0h30l18 5 8 4 9 7 6 5 5 9 2 6v7l-4 2v2l-2 1h-26l-8-6-6-7-4-2v-2l-10-2-10 1-12 6-6 8-4 13v15l4 13 4 7 8 5 6 2h13l10-4 7-6 2-4-21-1-3-2-1-13 1-12 1-1h61l2 4v26l-5 13-8 10-8 7-12 7-13 5-4 1h-30l-15-4-14-7-6-4-7-8-2-4h-2l-6-13-4-16v-17l3-14 5-12 7-9 4-5 14-9 18-6z" fill="#F27470"/>
<path transform="translate(782,1211)" d="m0 0h115v29l-76 1-1 13 59 1v29h-59l1 17 76 1 1 1v24l-1 5h-108l-7-1-1-1v-118z" fill="#F27470"/>
<path transform="translate(1546,1211)" d="m0 0h37l1 4 1 39h19l3-4h2l1-4 14-25 7-10h41l-4 11-15 27-7 9-11 10 5 4 8 7 8 12v3h2l15 30 1 7h-40l-1-4h-2l-6-11-7-14-5-9-3-5-9-3h-16l-1 39-1 7h-37l-1-1v-118z" fill="#F27470"/>
<path transform="translate(839,672)" d="m0 0h22l7 3 1 3-1 1-9 80-2 18-3 7-10 5-8 1v-2l-11 1h-23l-7 1-12-2-1 2-7-1-1-3-7-2-2 4 1-15 4-31 5-16 7-14 8-12 10-10 14-9 14-6z" fill="#DDA9C3"/>
<path transform="translate(907,1211)" d="m0 0h120l2 8v17l-1 3-2 1h-40v91h-37l-1-1-1-89-39-1-2-4v-24z" fill="#F27470"/>
<path transform="translate(1023,788)" d="m0 0h20l3 2-3 37-5 46h-2v-2l-7 1v2l-9 2-5-2-3 1h-8l-5-1-8 2-11 1-14 5-10 1-7 3h-3l-1 5-3-1-1-8 3 2 5-29 4-12 7-13 13-16 9-8 13-8 14-6z" fill="#DDA9C3"/>
<path transform="translate(855,780)" d="m0 0h1l-1 13-7 61-2-4-5-2-4 2-9 1-1-3-4-1-1 2-5 1-5-1v2h-10l-1 2-2-1 1 3-4 4-5 1-10 5-4 1-7 4-6-9-3-6 1-12-1-1-2 5h-1l1-15 5-42 3-7 7 3 1 2 7 1 1-1h9l7 1 3-1h34v2l10-3 8-4z" fill="#EB90AF"/>
<path transform="translate(1207,1011)" d="m0 0 6 3 3 1-1 8-5 13-8 13-9 11-9 8-11 7-14 6-6 2-7 1h-22l-6-2 5-44 3-6 3 1v2l8-3 5-3 13-2 4-2 9-1 9-3 13-4 6-3 7-1z" fill="#DDA9C3"/>
<path transform="translate(868,922)" d="m0 0 5 2 6 10 5 10 1 4h2l5 8 1 3h2l1 2 5-2h6v2l6 1 9-3 2-4 3-3h5l-1-3 3-1 3-4 3-19h1l-1 16-12 102-4 26-2 7-3-4-6-16-14-40-15-42-11-31-6-18z" fill="#A45FA8"/>
<path transform="translate(868,678)" d="m0 0 2 2 4 10 4 13 6 17 4 11 5 15 3 8 7 20 5 12 6 19v2l-4 1-2-1-2-6-3-1v-2l-5-1-7 2-9 3-6 4-5 4-5 3-5 1-2 2h-5l-1 3h-1l1-17 11-97 3-26z" fill="#A45FA9"/>
<path transform="translate(1032,871)" d="m0 0h4l1 2v10l-3 25v14 3l-4 33h-1v-18l1-12 1-6v-8l-5 2-4-1v-2l-7 1h-14l-4 1h-11v2l-8 2-12 2-5 1-5-1-14 1v-9l1-8v-15l2-1 1-3 10-4 14-2 10-4 11-1 11-2 2 1h8l5-1 3 2 9-1v-2z" fill="#EB90AF"/>
<path transform="translate(1306,1235)" d="m0 0 8 1 11 4 8 8 4 11 1 6v12l-3 12-5 8-8 7-9 3h-13l-8-3v-2l-4-1-6-8-4-10-1-5v-10l2-12 5-10 7-6 10-4z" fill="#FCEDEC"/>
<path transform="translate(1224,955)" d="m0 0 1 4-6 47-2 9-3 1-6-4-8 3-7 1-8 4-8 2-9 3-9 1-9 3-8 1-9 5-6-1-1-1-2 3 1-14 3-22h1l1 5 7-1 2-4 14-7 13-5 9-3 8-1 3-2 8-1 6-2h8l6-4h3l1-4 3-1 2-14z" fill="#EB90AF"/>
<path transform="translate(1132,950)" d="m0 0 2 4-4 39-9 69-2 18-3-4-9-17v-2h-2l-3-7-12-22v-2h-2l-5-11v-2h-2l-4-9v-2h-2l-3-9h-2l-4-9v-2h-2l-5-11v-2h-2l-2-6h3l5 5 4 6 5 6v2l3 1 2 4 7 6 5 2 3-2 3-3 6-2 12-2v-2h3l2-6h4l-1-3 4-1 2 1 1-6 3-7z" fill="#A45FA9"/>
<path transform="translate(1045,790)" d="m0 0 4 2 1 4h2l2 7h2l7 15v2h2l6 13v2h2l5 11v2h2l2 4v3h2l4 9v2h2v4h2l3 6v3h2l1 6h2v2l-3-1-5-5-8-7-5-1-11 5-3 2h-3l-2 5-3 3-9 4-11 5-2 3v-9l8-75z" fill="#A45FA9"/>
<path transform="translate(521,1239)" d="m0 0h34l8 4 3 4-1 9-4 5-6 2h-35v-23z" fill="#FCEDEC"/>
<path transform="translate(1437,1239)" d="m0 0h30l10 2 5 5 1 7-4 6-4 3-4 1h-34z" fill="#FCEDEC"/>
<path transform="translate(846,855)" d="m0 0h1l1 16h-1l-3 24h-1v-12l1-9-2-2v-8l1-2h2z" fill="#E797B5"/>
</svg>
