<?xml version="1.0" encoding="UTF-8"?>
<svg version="1.1" viewBox="0 0 2000 2000" width="1280" height="1280" xmlns="http://www.w3.org/2000/svg">
<path transform="translate(0)" d="m0 0h2e3v2e3h-2e3z" fill="#FDE6EC"/>
<path transform="translate(1512,670)" d="m0 0h16l10 4 9 8 6 10 3 7v16l-4 14h50l43 3 36 4 18 3 10 4 8 7 5 10 1 5v11l-3 11-8 11-9 7-16 9-15 7-1 2 4 2 7 6v2l49 1-7 11-9 14-3 7 9 13 8 15 7 19 5 25 1 10v17l-2 20-8 42-3 19-2 28v22l4 9-1 6-3 8-1 37-2 26-4 23-7 24-8 19-9 16-7 10-5 10-5 2-109 14-123 17-31 3-36 2h-51l-24-3-49-8-40-5-23-2-20-1h-51l-56 3-69 5-63 3-81 3-41 2-1-2 90-17 49-9 12-2-37 3-340 32-34 3-45-6-48-6-33-3-55-3h-40l-39 2-17 1-1-23v-18l2-2 9-2-6-7-8-10-7-15-4-13-3-19-1-12-1-27v-16l7-19 5-21 2-19v-17l-3-24-3-17-3-36-1-32 10-25 6-21 4-23 1-60 3-16 5-18h-11l-7-31-1-4 22-12 28-14 37-16 4-1h42l102 8 49 3 22 1 38 1h99l57-1 72-3-1 2-71 17-29 6-30 5h-5l1 1 54-7 82-9 130-15 523-59z"/>
<path transform="translate(391,831)" d="m0 0h188l9 7 3 3v2h2l5 7 1 3v42h114l20 1 1 2v131l-2 3-11 1h-123l1 67v73l-1 9-6 8-9 9-3 2h-192l-5-3-4-3v-2l-4-2-1-3h-2l-4-7v-63l-3 1h-8l5-5 5-3 1-260 4-7 9-9 5-3z" fill="#FDE6EC"/>
<path transform="translate(398,840)" d="m0 0h31l6 2 8 8 9 11 3 1h57l7-6 9-11 4-4 7-1h28l11 1 8 7 4 5v42l-42 1-17 1-1 1-1 86-1 1h-43l-52 1-11 3-8 6-7 7-7 14-2 13v65l-1 11h-11l6-13-8 7-5 4-3 1v-251l7-8 6-4z"/>
<path transform="translate(537,904)" d="m0 0h189v120l-1 1h-131l-2-2 8-9 3-6v-9l-4-8-6-4-3-1-53-1z"/>
<path transform="translate(439,993)" d="m0 0h150l5 3 2 4v7l-8 9-11 7-4 1-26 1h-40l-1-1-1-8h-6l-1 88-57 1-1-1-1-57h-6l-1 58h-26v-85l4-10 9-10 9-5z"/>
<path transform="translate(376,1141)" d="m0 0h214v35l-3 7-9 9-51 1h-110l-29-1-12-12z"/>
<path transform="translate(597,850)" d="m0 0 2 3v42h114l20 1 1 2v131l-2 3-8 1-11-1h-114l2-2v-3l82-1 37-1 5-1 1-120h-189v81h53l8 4 5 7 1 3v9l-6 10-7 6v1l6 1-4 1 1 3 4 2-2 2-1 78-2 2v8l1 4h-1v9l-2 1-1-106-2-2-2 1h-11l-2 4h-67v71h39l1 1v8l-161 1-4-3v-2l5-4h11v-76l2-13 7-14 11-11 8-4 8-2 52-1h43l1-86 2-2 17-1h42v-41h1v43h2l-1-9 2-2 1-8v-13l1-13zm-158 143-11 2-9 5-7 7-5 9-1 4v85h26l1-58h6l1 57 1 1 57-1 1-88h6l1 8 1 1h40l26-1 8-3 10-8 5-6v-7l-3-5-4-2z" fill="#FDE6EC"/>
<path transform="translate(506,1033)" d="m0 0h84v99l-133 1h-79l-2-1v-15l9-3 2-1h159l-1-8-39-1z"/>
<path transform="translate(1328,977)" d="m0 0h13l7 3 6 4 6 9 7 15 2 9v14l-5 15-7 11-7 6-6 2h-14l-13-4-6-5-10-23-2-5-1-11 4-14 6-10 11-12 5-3z" fill="#FDE6EC"/>
<path transform="translate(1267,977)" d="m0 0h18l-2 16-7 41-3 21-4 9-10 1-5-5-4-8-10-21v-2h-2l-3 12-10 21-3 3h-6l-6-5-4-14-4-20-4-34-2-14h11l5 2 3 7 4 21 2 16 1 1 8-18 4-6 5-2 7 2 3 3 7 16 2 5 2-12 6-34z" fill="#FDE6EC"/>
<path transform="translate(391,831)" d="m0 0h188l9 7 3 3v2h2l4 5-1 19v11l-2 11h-1v8l3-1v2l-5 1-1-3v-42l-9-10-3-2-11-1h-28l-7 1-11 12-7 8-2 1h-57l-5-3-12-14-4-4-5-1h-31l-9 1-7 4-5 2-5-1v-3l9-9 5-3z" fill="#FDE6EC"/>
<path transform="translate(1386,977)" d="m0 0h30l11 1 8 7 6 7 2 6v12l-7 11-3 3 1 6 4 8 4 9 1 12v5l-9 1-8-1-3-16-5-10-4-4-9-1-1 1-1 29-1 1h-10l-4-3-1-3-1-33z" fill="#FDE6EC"/>
<path transform="translate(894,977)" d="m0 0h31l10 1 10 9 5 7 1 4v11l-6 11-4 5 1 4 4 9 5 14v12l-8 1-9-1-3-16-5-10-5-4-2-1h-6l-1 1-1 29-1 1h-8l-5-2-2-6-1-43z" fill="#FDE6EC"/>
<path transform="translate(978,977)" d="m0 0h7l7 6 7 15 9 24 1-15v-29l1-1 16 1 1 1v24l-1 28 1 14v12l-4 6-3 2h-10l-4-2-10-23-9-19v42l-1 1h-12l-3-3-1-3v-26l3-7-1-6-2-3-1-21 1-9 4-7z" fill="#FDE6EC"/>
<path transform="translate(462,896)" d="m0 0 11 1 8 4 7 7 4 10 1 9v15l-2 13-5 10-7 6-8 3h-13l-9-3-8-7-5-10-1-5v-26l3-12 6-8 8-5z"/>
<path transform="translate(833,977)" d="m0 0h14l10 4 10 10 4 7v3h-18l-3-1-5-5-6-1-6 3-6 9-3 9v10l4 11 5 7 4 2h7l6-4 3-5v-2l-15-1-1-1v-15h31l6 3 1 2v9l-4 12-5 8-6 7-7 5-8 2h-12l-8-3-7-6-7-10-5-13-1-6v-13l3-12 6-12 8-8 7-4z" fill="#FEFAFB"/>
<path transform="translate(1462,977)" d="m0 0 19 1-1 31 7-3 4-5 5-14 2-9 3-1 14 1v10l-3 13-5 10-2 5 8 9 4 11 2 8v15l-2 4-13-1-2-2v-8l-3-13-6-9-7-4-5-1v30l-3 9-3 1h-7l-5-1-1-2z" fill="#FDE6EC"/>
<path transform="translate(1065,977)" d="m0 0h37l2 1v14l-1 1-34 1-4 8-1 6 20 1 1 1v14l-1 1-19 1v15l3 6 3 1 14 1 2 1 2-1h14l1 7v7l-1 1h-14l-3-3-2 4h-13l-10-3-8-6-6-9-1-4v-46l5-10 10-9z" fill="#FDE6EC"/>
<path transform="translate(454,1150)" d="m0 0h45l17 1 1 2v28l-2 2h-25l-39-1-2-5v-21l2-5z" fill="#FDE6EC"/>
<path transform="translate(1124,977)" d="m0 0h57l1 4-1 11-1 1h-9l-6 3-4 7 1 14v18l-2 5 2 21v3h-18l-1-1v-7l1-2v-14l-1-13 2-14-1-7-2-12h-17l-2-3v-13z" fill="#FDE6EC"/>
<path transform="translate(1122,1302)" d="m0 0h51l32 2 44 5 51 8 18 3 11 1h51l36-2 22-2h15l-1 3-5 1h-8l-9 1-13-1-1 3-2 1h-13l-11-1-13 3-9 1h-40l-6-2-12-2-2-1h-13l-11-3-19-2-5-2-24-2-6-3h-14l-3-1-19-1-9-3-17-1-12 2h-24l-7-1h-26l-3 3h-14l-2-1h-14l-7 3h-7l-1-1-12-1-1 3-2 1h-8l-3-1h-14l-7 1-24 1-2 2-3 1h-17l-6-1-15 1-2-1-6 3h-12l-8-3 2-2 68-3 60-4 61-4z" fill="#FEFAFA"/>
<path transform="translate(454,889)" d="m0 0h19l8 3 6 4 7 8 5 11 1 3v32l-3 11-5 8-7 8-9 5h-24l-8-4-6-5-7-11-4-16v-23l3-12 5-9 8-8 7-4zm8 7-10 2-9 6-5 7-3 12v26l3 10 6 8 7 5 7 2h13l10-4 7-8 4-11 1-9v-15l-2-13-5-8-8-7-5-2z" fill="#FEFAFA"/>
<path transform="translate(833,977)" d="m0 0h14l10 4 10 10 4 7v3h-18l-3-1-5-5-6-1-6 3-6 9-6 6h-2l-3 12 1 8 3 8 5 6-1 2-5 1-5-4-2-2-4-10h-2l-1-6v-13l3-12 6-12 8-8 7-4z" fill="#FDE7EC"/>
<path transform="translate(1332,992)" d="m0 0 6 1 6 5 5 10 2 13-2 13-5 9-7 5h-9l-6-5-4-8-1-4v-15l3-12 6-8z"/>
<path transform="translate(1319,999)" d="m0 0h3l-1 5-3 12v15l4 10 4 5 2 1h9l7-5 4-8 1-3h2v-6l2-1v2l3 1 1 7 5 1 2 4v4h-2l-2 10-7 8-5 3-4 1h-14l-13-4-6-5-3-7v-5h4l-1-6-2-6v-2l-2 2h-3l1-6h2l2-9 4-9h2v-6z" fill="#FEFCFC"/>
<path transform="translate(579,986)" d="m0 0h14l6 4 4 6 1 3v9l-6 10-7 6v1l6 1-4 1 1 3 4 2-2 2-1 78-2 2v8l1 4h-1v9l-2 1-1-106-2-2-2 1h-11v2l-2 1h-69l1-6h39l8 2v-2l6 1 1-1 14-1 12-8 8-7 2-3v-7l-2-7-1-3-9-1v-2z" fill="#FEFCFB"/>
<path transform="translate(958,1288)" d="m0 0h9v1l-66 12-79 15h-10l1-5-6-2v-1l14-2 7 1 1-4 2-3z" fill="#FEFAFA"/>
<path transform="translate(362,802)" d="m0 0h39l-2 4-11 12-8 8-8 7-19 19h-2l1-11 9-38z" fill="#FEFBFB"/>
<path transform="translate(529,978)" d="m0 0h1v7l-1 4 8-1 2-3h51v1l-7 1 9 3 3 5-2 1-4-2-150-1v-1l10-1 2-1 21-1-3-2h-24l-12 1-4 1h-7l3-2 8-2 52-1h43z" fill="#FDE6EC"/>
<path transform="translate(1061,1027)" d="m0 0 2 4-1 3-2 1-1 3h2v2l4 1 3 6 3 1 14 1 2 1 2-1h14l1 7v7l-1 1h-14l-3-3-2 4h-13l-10-3-8-6-6-9v-10l7-2 5-7z" fill="#FEFDFC"/>
<path transform="translate(380,845)" d="m0 0h2l-2 4-3 4h-2v17l-3 1-1-2v16l2-2v160l-2 3v19l2 1 1 11-1 15-3 1v11h-1v-256l4-2 5 1z" fill="#FFFFFE"/>
<path transform="translate(445,840)" d="m0 0h76l-2 4-6 8-2 2h-55l-7-7-4-5z"/>
<path transform="translate(1122,1302)" d="m0 0h51l12 2v1h-17l-12 2h-24l-7-1h-26l-3 3h-14l-2-1h-14l-7 3h-7l-1-1-12-1-1 3-2 1h-8l-3-1h-14l-7 1-24 1-2 2-3 1h-17l-6-1-15 1-2-1-6 3h-12l-8-3 2-2 68-3 60-4 61-4z" fill="#FEF8F9"/>
<path transform="translate(837,1017)" d="m0 0h31l-4 2 6 10-1 8-4 5-7 11-7 4h-11l-4-3 6-2v-4l-5-1v-1l9-2 5-4 2-6-15-1-1-1z" fill="#FDE6EC"/>
<path transform="translate(1328,977)" d="m0 0h13v1l-9 2-3 3 1 4 4 5-8 5-4 4v-2l-6 3-1 6h-2l-6 18h-2v6l4-2 4 11-1 4-5 1-7-14-2-11 1-9 5-13 6-8 9-10 5-3z" fill="#FDE6EC"/>
<path transform="translate(458,1158)" d="m0 0 51 1v16h-19l-33-1v-15z"/>
<path transform="translate(563,963)" d="m0 0h95l1 2v6h-96z" fill="#FDE6EC"/>
<path transform="translate(1065,977)" d="m0 0h37l2 1v14l-1 1-37 1v-3h-3l2 1v3l-4-2-1-3h-2l-1-6 4-6z" fill="#FEFBFB"/>
<path transform="translate(426,1313)" d="m0 0h23l50 6 51 7 26-2 30-3h19l-3 2-3 1h-14l-21 2-3 3-15-1-6 3h-20l-11-2-2-4-11 1h-12l-8-3-1-1h-20l-7-2-2-1v-2l-13 2-7-1-17-1-3-2z" fill="#FEFAFA"/>
<path transform="translate(732,1019)" d="m0 0 1 4-1 4 1 4-1 1-8 1-11-1h-114l2-2v-3l82-1h43l2-4 3 2z" fill="#FEFEFD"/>
<path transform="translate(253,1163)" d="m0 0 2 1 1 27 3 26 4 15 5 12 6 10 9 10 2 3-4 2-7 2-1 40-1-4h-2l-3-9v-18l3-10 4-2-3-5v-2h-2l-7-15-4-12-3-8-1-7-2-9v-45z" fill="#FEF9FA"/>
<path transform="translate(616,1204)" d="m0 0h7l1 1v8l-5 2-59 9-3-1 11-7 9-9 2-1z" fill="#FEFBFB"/>
<path transform="translate(684,931)" d="m0 0h20l1 1v8l-34 1h-19l-26-1-1-5 1-3z" fill="#FDE6EC"/>
<path transform="translate(369,1145)" d="m0 0h1l1 7 2-1 2-4v33h2l8 8 3 5 2 1 23 1 44 1h10l-2 3h-13l-18 1h-45l-7-3-3-2v-2l-4-2-1-3h-2l-4-7v-17z" fill="#FEFDFC"/>
<path transform="translate(627,994)" d="m0 0h61l17 1 1 6-1 1h-79v-7z" fill="#FDE6EC"/>
<path transform="translate(1124,977)" d="m0 0h57l1 4-1 11-1 1h-7l-5-1-3-7-2-3v-3h-12v2l-9 5-2 6-7 1-1 1h-7l-2-3v-13z" fill="#FEF7F8"/>
<path transform="translate(445,986)" d="m0 0h27v1l8 1v1l-8 1-21 1-2 1h-10v2l-11 2-9 5-8 9-4 10-4-1 1 4-1 13-2 4-2-4v-16l3-11 6-9 9-9 4-2 8-1 4-1z" fill="#FEFCFB"/>
<path transform="translate(1403,978)" d="m0 0h24l8 7 6 7 2 6v12l-5 8-4 1-2-4v-4l-5-1-1-1v-8h-2l-1-6 3 3 1 2 6 1-3-8-5-5-7-3h-14l-2-1z" fill="#FEFCFC"/>
<path transform="translate(534,897)" d="m0 0 8 1-5 5-1 83 2 1-1 2h-8v-27l1-63z" fill="#FEFEFD"/>
<path transform="translate(1151,979)" d="m0 0h12l5 10v3l3 1-6 3-4 5-5 1-3 3-1 3-6 2-3-8-1-8-9-1v-1h7l1-6 8-5h2z" fill="#FDE6EC"/>
<path transform="translate(801,741)" d="m0 0h10l3 3v2l-4 3-15 2-1 1-90 11v-2l45-8 41-9z" fill="#FEF7F8"/>
<path transform="translate(728,898)" d="m0 0h2l2 8-1 114-4-1v-118h-3v-2z" fill="#FEFEFD"/>
<path transform="translate(914,978)" d="m0 0h21l10 9 5 7 1 4v11l-5 10-3-1-2-10v-10l-2-5-5-5-8-3h-13l-3-1-1-4z" fill="#FEFCFC"/>
<path transform="translate(456,854)" d="m0 0h55l-3 5v1h7l-3 3h-57l-4-2 4-1h5l1-4-5-1z" fill="#FDE6EC"/>
<path transform="translate(912,993)" d="m0 0 12 1 7 3 2 4v7l-6 7-8 3h-6l-2-1v-23z"/>
<path transform="translate(1404,993)" d="m0 0 13 1 6 3 2 4v7l-6 7-4 2h-12v-23z"/>
<path transform="translate(433,1046)" d="m0 0h6l1 2-1 57-1 2-5 1-1-2v-59z" fill="#FEFBFB"/>
<path transform="translate(590,1025)" d="m0 0 7 1-4 1 1 3 4 2-2 2-1 78-2 2v8l1 4h-1v9l-2 1-1-106-1-4z" fill="#FEFEFD"/>
<path transform="translate(456,1173)" d="m0 0 34 1h20l-1 3 3 1 5-2v5l-2 2h-25l-39-1-1-4 6 2 6-3v2l25-1v-2h-32z" fill="#FDE6EC"/>
<path transform="translate(1334,978)" d="m0 0h11l9 6 3 7-11 6v3l2 1-4-1-4-5-9-4-2-4-1-4z" fill="#FEFDFC"/>
<path transform="translate(839,978)" d="m0 0h12l8 5 8 8 4 7v3h-18l-3-1-5-5 1-3 6-2 1-2-6-2-1-2h4l-9-3v-2z" fill="#FEFAFB"/>
<path transform="translate(1720,1208)" d="m0 0 2 2-1 9-1 1-3 14-5 13-6 9-1 2h-2l-1 6-6 8-5 5h-2l-1 2 1-7 9-13 9-17 8-22 3-11z" fill="#FEFAFA"/>
<path transform="translate(563,931)" d="m0 0h39l2 4-1 5h-40z" fill="#FDE6EC"/>
<path transform="translate(374,804)" d="m0 0h3v2l4 2 2 3-1 6-5 6-10 7h-3l-1-2v-13l1-1-2-1v5h-1l-1-11 2 3 9-3z" fill="#FDE6EC"/>
<path transform="translate(582,835)" d="m0 0 4 1 5 5v2h2l4 5-1 19v11l-2 11h-1v8l3-1v2l-5 1-1-3v-42l-9-10v-4h-2v-3z" fill="#FEFCFC"/>
<path transform="translate(356,721)" d="m0 0h3v2l-13 5-32 14-30 15-13 7-4-1 11-7h2l1-3 12-6h2l1-2 7-1 1-3 8-3 9-4 5-3 6-3h8v-2l10-4z" fill="#FEFAFA"/>
<path transform="translate(464,726)" d="m0 0h31l2 1 27 2 35 1 5 1 36 2v1h-48l-76-5v-2h-12z" fill="#FDF2F4"/>
<path transform="translate(1143,978)" d="m0 0h39l-1 14-1 1h-7l-5-1-3-7-2-3v-3h-12v2l-9 5-3 3 1-5z" fill="#FEFBFB"/>
<path transform="translate(499,1016)" d="m0 0h2v2l4 1h-2l1 8h-4l1 7 2-2v57l-1 2h-2l2 5-3 1z" fill="#FFFFFE"/>
<path transform="translate(1089,1049)" d="m0 0h14l1 7v7l-1 1h-14l-3-3-2 4h-13v-1l11-1 3-3v-10z" fill="#FEFBFB"/>
<path transform="translate(1340,1169)" d="m0 0 4 1-1 4-2 1-18 2-10 4-4 1-9-2-13-1v-2l49-7z" fill="#FEF6F8"/>
<path transform="translate(1520,1138)" d="m0 0h2v18l2 12 2 5-6-2-11-4-1-2 11-25z" fill="#FEF8F9"/>
<path transform="translate(434,838)" d="m0 0h7l3 1 9 11 3 3v2h17v1l-11 1-2 1v2l-7 1-5-3-9-11-4-4v-3l-2-1z" fill="#FEFCFB"/>
<path transform="translate(261,1031)" d="m0 0h2l5 31 1 10v17l-1 10-2 1-3-15 1-10v-21h-2l-2-6z" fill="#FEF8F9"/>
<path transform="translate(527,835)" d="m0 0 5 1 2 4h-2l-2 4-9 10-5 6-8 1-1-2 2-4h2l2-4 7-9h2l2-4z" fill="#FEFBFB"/>
<path transform="translate(1505,1244)" d="m0 0 3 1v1l-30 5-36 5h-7l2-2 13-3 23-5 8-1z" fill="#FEF3F5"/>
<path transform="translate(451,1153)" d="m0 0 3 1 1 3-1 3-2 1v2l2-2 1 8 1 5v1l31 1v2l-3 1-18 1-5-2-5 3-5-1-2-3v-21h2z" fill="#FFFFFE"/>
<path transform="translate(1070,1010)" d="m0 0h15v14h-16l2-6-2-5z" fill="#FEFCFB"/>
<path transform="translate(681,963)" d="m0 0h24v8l-1 1h-13l-10-1z" fill="#FDE6EC"/>
<path transform="translate(627,994)" d="m0 0 16 1 20 1v4l-8 1h-28l-1-1v-5z" fill="#FEFDFD"/>
<path transform="translate(551,1088)" d="m0 0 22 1h6v4l-11 2-19 2-5 2 1-6z" fill="#FEF7F8"/>
<path transform="translate(1723,761)" d="m0 0 2 2v12h2v9l-4 8-4 4h-2v3l-4 1v2l-8 6h-2l2-4 5-5 7-9 4-9 1-5z" fill="#FEFAFA"/>
<path transform="translate(272,1268)" d="m0 0 1 2v41l-1-4h-2l-3-9v-18l3-10z" fill="#FEFDFD"/>
<path transform="translate(1512,983)" d="m0 0h2v11l-5 14-3 4-3-1 3-14v-6l-2-3-6-1 4-2 7-1z" fill="#FEFBFB"/>
<path transform="translate(1699,806)" d="m0 0h3v2l-4 1v2l-7 3-4 1-2 6-1 9-5-1-8-6 2-4 16-7z" fill="#FEFAFA"/>
<path transform="translate(1347,1069)" d="m0 0h7l-2 8-1 16-1 2h-5l-1-5 1-20z" fill="#FEF7F8"/>
<path transform="translate(552,806)" d="m0 0h12l-8 16-6 5-2-4 3-16z" fill="#FEF9FA"/>
<path transform="translate(1010,977)" d="m0 0 16 1v12l-1-4-6 1-4-1-3 1 1 2 2-1-2 5-3 1z" fill="#FEFBFB"/>
<path transform="translate(1027,1308)" d="m0 0h12l-1 4-2 1h-8l-3-1h-14l-7 1h-25v-2z" fill="#FEF7F8"/>
<path transform="translate(276,801)" d="m0 0h11l-2 9-4 16-2 7-2-2v-11l2-6-2-9z" fill="#FEFBFB"/>
<path transform="translate(262,1102)" d="m0 0 2 2 2-1v9l-5 20-6 16h-2v-8l3-6 2-6 2-3 1-12 3-4-4-3z" fill="#FEF9FA"/>
<path transform="translate(534,730)" d="m0 0h25l5 1 36 2v1h-48l-17-1z" fill="#FEF8F9"/>
<path transform="translate(1348,1034)" d="m0 0 2 3 1 9-3 1-1 5-4 2-1-3h-10l-4-2v-1l9-1 7-5z" fill="#FDE6EC"/>
<path transform="translate(380,845)" d="m0 0h2l-2 4-3 4h-2v17l-3 1-1-2v-8h-2v-13l4-2 5 1z" fill="#FEFCFC"/>
<path transform="translate(1555,695)" d="m0 0h2l3 13v6l1 2v11l-6 1h-3l2-9 1-4z" fill="#FEFAFA"/>
<path transform="translate(426,1313)" d="m0 0h23l12 2 5 1v1l-13 2-7-1-17-1-3-2z" fill="#FEFCFB"/>
<path transform="translate(820,1306)" d="m0 0 9 4v3l-1 2-6 1h-10l1-5-6-2v-1z" fill="#FEFCFC"/>
<path transform="translate(375,716)" d="m0 0 15 1 4 2 14 2v1l-46-1 4-4z" fill="#FFFFFE"/>
<path transform="translate(1509,1033)" d="m0 0 2 3 3 3 1 6-2 3-4-1v2l-1 6h-3l-1 2-1-12-1-2 3-2h3z" fill="#FEFEFD"/>
<path transform="translate(512,1154)" d="m0 0h4v23l-5 2-3-2 2-4v-6l2-1-1-5-1-4z" fill="#FEFDFC"/>
<path transform="translate(257,971)" d="m0 0h1l1 21 1 3v27l-2 2-2-12v-31z" fill="#FEFCFB"/>
<path transform="translate(1158 1e3)" d="m0 0h3l-1 17h-2l-4-5-2-1-2 4-2-1-1-6h5l1-4z" fill="#FEFDFC"/>
<path transform="translate(272,919)" d="m0 0h1l-1 10-6 17-8 16-1-3 3-9 8-19 2-10z" fill="#FEF7F8"/>
<path transform="translate(267,767)" d="m0 0h2l4 15 1 4v9l-2 1v-6l-3-1-2-5-1-7v-9z" fill="#FEFBFB"/>
<path transform="translate(1498,1309)" d="m0 0h13l-4 2-24 3-3 2h-11l-15 1v-2z" fill="#FEF5F7"/>
<path transform="translate(362,802)" d="m0 0h34v1l-19 1-1 2-10 4-5 1v-8z" fill="#FEF6F7"/>
<path transform="translate(1438,1317)" d="m0 0h15l-1 3-5 1h-8l-9 1-13-1-1-2z" fill="#FEF8F9"/>
<path transform="translate(390,1092)" d="m0 0h2l-2 6-5 9-2 2-7-1 1-5 6-4z" fill="#FEF8F9"/>
<path transform="translate(415,722)" d="m0 0h26l11 2 8 1v1h-23l-11-1v-2h-11z" fill="#FEF8F9"/>
<path transform="translate(1053,1306)" d="m0 0h24v1l-11 1-7 3h-7l-1-1-12-1v-2z" fill="#FEFAFA"/>
<path transform="translate(933,1050)" d="m0 0h2v3l3 1-2 1 3 6h9l1-2h2v5l-8 1-9-1z" fill="#FEF5F6"/>
<path transform="translate(606,1321)" d="m0 0h19l-3 2-3 1h-14l-11 1h-18v-1z" fill="#FDF1F4"/>
<path transform="translate(1212,1056)" d="m0 0h2v2h10v5l-2 2h-6l-4-3-1-5z" fill="#FEFBFB"/>
<path transform="translate(462,1176)" d="m0 0h25v2l-3 1-18 1-4-1z" fill="#FFFFFE"/>
<path transform="translate(824,981)" d="m0 0 3 1-7 5-2 6-3 4-1 4-3 1-2 2 1-7 6-9z" fill="#FEFAFB"/>
<path transform="translate(464,726)" d="m0 0h31l6 2v1h-25v-2h-12z" fill="#FEFBFB"/>
<path transform="translate(523,1224)" d="m0 0h9l4 2-8 3-9 2h-6l1-2 8-4z" fill="#FEF2F5"/>
<path transform="translate(909,1315)" d="m0 0h23l-1 3-2 1h-12l-8-3z" fill="#FFFFFE"/>
<path transform="translate(369,1106)" d="m0 0h1v5h2l-2 6-5 2h-8l5-5 5-3z" fill="#FEFAFA"/>
<path transform="translate(948,992)" d="m0 0 2 2 1 4v11l-4 8-1-4 2-4-1-1v-8l1-4h-4v-2z" fill="#FDE6EC"/>
<path transform="translate(291,1310)" d="m0 0h32v1l-20 2-2 1h-6v-1h-6l-1-2z" fill="#FEF6F8"/>
<path transform="translate(1355,994)" d="m0 0 2 1-1 10-5 3h-3l-1-6 5-3 1-3h2z" fill="#FEFCFC"/>
<path transform="translate(1267,978)" d="m0 0h11v1l-7 1v5l-3 3 1 4-4 1v-8z" fill="#FEFAFA"/>
<path transform="translate(1280,978)" d="m0 0h4v9h-2l-1 2-6-4 1-4 2 1v-2z" fill="#FEFCFC"/>
<path transform="translate(1145,1054)" d="m0 0 1 2 5 2 8 1v4h-12v-2h-2z" fill="#FFFFFE"/>
<path transform="translate(1143,978)" d="m0 0h20v1h-12v2l-9 5-3 3 1-5z" fill="#FFFFFE"/>
<path transform="translate(856,987)" d="m0 0 4 2 4-1 2 3-3 4-5 1-4-2 2-2z" fill="#FDE6EC"/>
<path transform="translate(824,1007)" d="m0 0 1 4-2 6h-2v3l-5 1 1-6 2-3h2l2-4z" fill="#FEFCFC"/>
<path transform="translate(958,1288)" d="m0 0h9v1l-17 3h-9l-4-2z" fill="#FDEFF2"/>
<path transform="translate(597,1205)" d="m0 0h15l-2 3-31-1v-1z" fill="#FDE6EC"/>
<path transform="translate(451,1153)" d="m0 0 3 1 1 3-1 3-2 1-1 3-1 13h-1v-21h2z" fill="#FEF4F6"/>
<path transform="translate(702,1312)" d="m0 0h16v1l-14 2h-14l1-2z" fill="#FEF6F7"/>
<path transform="translate(384,1310)" d="m0 0h25l5 1v1l-15 1-15-2z" fill="#FEF7F8"/>
<path transform="translate(1425,1049)" d="m0 0 4 3v2h2l-1 5 1 2 4 2h-8v-6h-2z" fill="#FEFCFC"/>
<path transform="translate(1271,987)" d="m0 0 5 1 3 8-3 7 1 2h-3l1-12-1-3h-5z" fill="#FFFFFE"/>
<path transform="translate(1503,1017)" d="m0 0 4 1 3 3-1 4-4 1-4-6 1-2z" fill="#FEFAFA"/>
<path transform="translate(1025,1055)" d="m0 0 1 4-3 4-8 1 3-5h2l1-3z" fill="#FEFBFB"/>
<path transform="translate(1504,1045)" d="m0 0h3l2 4-1 6h-3l-1 2-1-11z" fill="#FFFFFE"/>
<path transform="translate(744,754)" d="m0 0 4 1 4 2-8 1h-13l1-2z" fill="#FEF3F5"/>
<path transform="translate(1323,984)" d="m0 0 2 4 1 3 3 1-1 3-4 1-3-5 1-6z" fill="#FEFEFD"/>
<path transform="translate(574,1325)" d="m0 0h10l-3 4-9-1-6-1v-1z" fill="#FFFFFE"/>
<path transform="translate(1085,1050)" d="m0 0h4l-1 11h-2l-2 4h-13v-1l11-1 3-3z" fill="#FDE6EC"/>
<path transform="translate(606,1321)" d="m0 0h19l-3 2-3 1h-17z" fill="#FEF9FA"/>
<path transform="translate(398,1081)" d="m0 0 3 3h1v5l-3-1 1 3v15h-2z" fill="#FFFFFE"/>
<path transform="translate(1199,980)" d="m0 0 7 1 3 1-1 4-6-1-2-1v-2l-3-1z" fill="#FFFFFE"/>
<path transform="translate(1036,720)" d="m0 0h14l1 2-19 2h-9v-1l12-2z" fill="#FFFFFE"/>
<path transform="translate(582,1190)" d="m0 0 4 1v2h-2l-2 4-5 1 2-7z" fill="#FEFCFC"/>
<path transform="translate(376,1110)" d="m0 0 7 1 2 4h-8z" fill="#FEFEFD"/>
<path transform="translate(518,729)" d="m0 0 16 1v2h-15z" fill="#FEF4F6"/>
<path transform="translate(1317,1010)" d="m0 0h1l-1 21-2-2-1-7z" fill="#FDE6EC"/>
<path transform="translate(1473,798)" d="m0 0h2l-1 5-3 4h-3l1-5z" fill="#FDF0F3"/>
<path transform="translate(976,980)" d="m0 0h13l-2 4h-3l-8-2z" fill="#FEFEFD"/>
<path transform="translate(790,729)" d="m0 0 10 1-1 2h-17l3-2z" fill="#FFFFFE"/>
<path transform="translate(1442,998)" d="m0 0h1v12l-3 3 1-14z" fill="#FDE7ED"/>
<path transform="translate(1521,668)" d="m0 0h9l5 2 3 3-7-1-3-1v-2h-7z" fill="#FEF8F9"/>
<path transform="translate(1444,1252)" d="m0 0 4 1 1 2-14 1 2-2z" fill="#FDF1F4"/>
<path transform="translate(1363,1017)" d="m0 0 3 1v10h-3z" fill="#FFFFFE"/>
<path transform="translate(1058,982)" d="m0 0h1l2 7 4 3v3l-4-2-1-3h-2l-1-6z" fill="#FFFFFE"/>
<path transform="translate(272,919)" d="m0 0h1l-1 10h-2l-1 2 1-10z" fill="#FEFAFA"/>
<path transform="translate(288,1311)" d="m0 0h15v2l-2 1h-6v-1h-6z" fill="#FFFFFE"/>
<path transform="translate(838,1023)" d="m0 0 1 3h2l1 4 6 1v1h-10z" fill="#FFFFFE"/>
<path transform="translate(274,901)" d="m0 0h2v11l-2 1-1-2z" fill="#FEFAFA"/>
<path transform="translate(824,981)" d="m0 0 3 1-7 5-1 3-5 2 2-4z" fill="#FEF3F5"/>
<path transform="translate(573,1089)" d="m0 0h6v4l-10-2z" fill="#FDE8EE"/>
<path transform="translate(933 1e3)" d="m0 0h2v2l4 2-2 4h-3z" fill="#FFFFFE"/>
<path transform="translate(515,1172)" d="m0 0h1v5l-5 2-3-2 4-3h3z" fill="#FFFFFE"/>
<path transform="translate(1520,1138)" d="m0 0h2v8l-2 3-2-7z" fill="#FDE6EC"/>
<path transform="translate(262,1102)" d="m0 0 2 2 2-1v9l-1-4-5-1z" fill="#FEFCFB"/>
<path transform="translate(1699,806)" d="m0 0h3v2l-4 1v2l-8 1 4-3z" fill="#FEF6F7"/>
</svg>
