<?xml version="1.0" encoding="UTF-8"?>
<svg version="1.1" viewBox="0 0 2000 2000" width="1280" height="1280" xmlns="http://www.w3.org/2000/svg">
<path transform="translate(837,672)" d="m0 0h12l17 1 5 8 20 59 17 48 23 65 13 34 2 3 1-21 3-17 5-13 9-14 9-10 6-7 14-9 10-5 14-4 10-2h11l2 4 2-4 6 2 8 13 13 26 12 22 14 26 17 32 13 23 8 15 2 1-1-4 2-19 5-17 6-9 3-4h2l1-3 10-6 11-3h16l13 4 8 6 5 4 7 11 4 11v19l-7 62-3 17-4 12-6 12-8 11-6 8-7 6-10 7-16 7-10 3h-31l-10-19-16-30-12-22-14-26-12-22-15-28-6-11v-2h-2v10l-7 69-3 17-5 13-8 14-7 9-4 5-10 8-13 8-13 5-6 2-14 1h-19l-2-2-4-13-13-36-7-21-17-47-7-21-15-43-12-32-5 47-14 126-4 16-5 9-9 10-12 6-13 2-13-1-11-4-11-8-5-6-6-12-1-3v-22l17-150 15-135 4-15 6-12 7-11 4-6 8-9 9-6 12-7zm26 6 1 2z" fill="#ED7E88"/>
<path transform="translate(1045,789)" d="m0 0 4 2 10 18 10 20 12 22 14 26 17 32 13 23 8 15 2 1-1-4 2-19 5-17 6-9 3-4h2l1-3 10-6 11-3h16l13 4 8 6 5 4 7 11 4 11v19l-7 62-3 17-4 12-6 12-8 11-6 8-7 6-10 7-16 7-10 3h-31l-10-19-16-30-12-22-14-26-12-22-15-28-8-15-2-5 3-24 5-37 5-47 1-11 2-4z" fill="#ED7E88"/>
<path transform="translate(1027,788)" d="m0 0h11l2 4 2-4 3 1v3l2 1-2 4-4 39-3 26-4 30-3 24 3 7h-2v10l-7 69-3 17-5 13-8 14-7 9-4 5-10 8-13 8-13 5-6 2-14 1h-19l-2-2 1-6 4-3 4-44 4-27 2-10 2-17 2-12 1-13 1-16 2-22v-23l2 1 1-21 3-17 5-13 9-14 9-10 6-7 14-9 10-5 14-4z" fill="#ED7E88"/>
<path transform="translate(869,681)" d="m0 0h2l20 59 17 48 23 65 13 34 1 6v21l-3 30v10l-2 18-2 10-2 18-2 7-3 22-4 44-3 3-4 2-10-29-7-20-17-48-7-20-13-37-14-40-5-12-2-11v-9l2-10 2-20 2-13 2-20 1-3 3-31 5-38 3-30z" fill="#D36E8D"/>
<path transform="translate(1031,1211)" d="m0 0h38l4 8 16 59v2l2-1 6-28 9-34 4-6h40l3 3 6 21 10 43v2l2-1 11-42 7-23 3-3h34l4 2-3 14-23 84-5 15-2 4-2 1-19 1h-17l-7-1-5-8-8-28-8-30v-2h-2l-4 18-12 43-3 6-2 1-23 1-20-1-5-8-8-26-16-58-5-19z" fill="#ED7F89"/>
<path transform="translate(1045,789)" d="m0 0 4 2 10 18 10 20 12 22 14 26 17 32 13 23 7 13 2 6v10l-3 31-3 27-6 45-1 11-2 4-1-2-3-1-16-31-12-22-14-26-13-23-15-29-10-18-5-11 3-24 5-37 5-47 1-11 2-4z" fill="#D36E8D"/>
<path transform="translate(635,1211)" d="m0 0h34l5 5 11 15 11 16 16 23 5 5v-48l1-14 3-2h30l5 1 1 3v113l-3 3-21 1h-13l-6-3-8-10-12-17-12-18-11-16-2-2-1 62-3 3h-34l-2-4-1-16 1-97 1-2z" fill="#ED808A"/>
<path transform="translate(1403,1211)" d="m0 0h78l12 3 12 5 9 7 6 8 4 13v9l-4 9-7 8-8 5-3 2 5 4 10 14 13 24 2 8-1 1-21 1h-15l-5-3-9-14-10-18-3-4-6-1-25-1v37l-3 3-24 1-11-1-1-2-1-11v-95l1-10zm35 28-1 1v23h35l7-4 3-5v-7l-4-6-2-1-24-1z" fill="#ED7F8A"/>
<path transform="translate(1293,1207)" d="m0 0h29l17 4 16 8 11 10 6 10 4 9 3 15v16l-3 15-5 12-7 9-7 7-10 6-14 5-9 2-9 1h-17l-13-2-15-5-12-7-10-10-7-12-4-13-1-5v-20l3-14 5-12 8-10 8-7 16-8zm11 28-10 3-8 6-6 10-2 7v20l3 10 6 8 5 4 10 4h11l10-4 8-7 5-10 1-5v-20l-3-9-6-9-10-6-9-2z" fill="#ED7F89"/>
<path transform="translate(383,1207)" d="m0 0h28l17 4 14 7 11 10 6 12 1 10-4 4-3 1h-26l-6-5-7-8-6-4-8-2-11 1-10 5-5 6-4 9-2 11v8l2 10 5 10 5 5 8 4 3 1h12l10-4 8-7 1-3-21-1-3-3-1-4v-14l2-6 2-1h58l3 5v23l-2 9-6 11-5 6-10 8-12 6-15 4-9 1h-15l-13-2-15-5-12-7-7-6-7-10-6-14-2-9v-23l4-15 6-12 10-11 11-7 12-5z" fill="#ED7F89"/>
<path transform="translate(486,1211)" d="m0 0h78l16 4 13 7 7 7 6 12 1 5v10l-3 8-9 10-10 5 5 5 9 12 12 22 4 8-1 5h-38l-7-8-14-25-4-5-3-1h-27l-1 36-2 3h-35l-2-3v-115zm35 28-1 1v23h35l6-3 4-5 1-5-3-7-4-3-9-1z" fill="#ED7F89"/>
<path transform="translate(785,1211)" d="m0 0h111l2 2 1 7v13l-1 6-2 1-75 1v13l51 1 7 1 1 2v21l-1 4-2 1h-57v18l77 1 2 3v17l-1 7-2 1-80 1h-27l-7-2-1-3v-113l1-2z" fill="#ED7F89"/>
<path transform="translate(1548,1211)" d="m0 0h34l2 1v43l18-1 6-5 14-25 8-12 2-1h33l7 2-9 19-10 18-7 9-9 8h-2v3l5 2 8 7 8 11 12 23 6 12v5l-1 1-19 1h-16l-5-3-6-9-14-26-4-6-7-3h-17l-1 44-2 2-25 1-10-1-2-4v-114z" fill="#ED7F89"/>
<path transform="translate(837,672)" d="m0 0h12l17 1 4 6-2 6-2 2-5 47-5 34-1 3h-2l-1 4-3 2h-8l-2 2-7 1-3 3-5-1h-19l-10 1h-10l-5-2v-2l-6 1-1 5-6 9-2 13-3 4 2-24 5-43 4-15 6-12 7-11 4-6 8-9 9-6 12-7zm26 6 1 2z" fill="#F0CBD8"/>
<path transform="translate(910,1211)" d="m0 0h117l2 4v22l-1 2-3 1h-38v83l-1 7-1 1h-35l-2-2-1-4v-85h-39l-3-7v-14l2-7z" fill="#ED818B"/>
<path transform="translate(1027,788)" d="m0 0h11l2 4 2-4 3 1v3l2 1-2 4-4 39-2 19-3 1-1 5-4 7-9 1-3 2-24 1-17 4-3 1-14 3h-3l-2 4-6 2-2 7-2-1 1-23 3-17 5-13 9-14 9-10 6-7 14-9 10-5 14-4z" fill="#F0CBD8"/>
<path transform="translate(1218 1e3)" d="m0 0h1l-1 13-5 16-6 12-8 11-6 8-7 6-10 7-16 7-10 3h-31l-3-6h3l1-2 3-27 2-7 7-3 9-3 5-2 15-3h5l8-3 10-3 13-1 5 2 6-5 2-5h2l2-7 2-6z" fill="#F1CCD9"/>
</svg>
