<?xml version="1.0" encoding="UTF-8"?>
<svg version="1.1" viewBox="0 0 2000 2000" width="1280" height="1280" xmlns="http://www.w3.org/2000/svg">
<path transform="translate(0)" d="m0 0h2e3v2e3h-2e3z" fill="#FDFDFD"/>
<path transform="translate(838,672)" d="m0 0h27l4 4 11 31 10 29 21 60 19 53 13 36 1 1 6-35 7-16 9-13 11-12 12-9 16-8 18-5h22l5 5 10 18 13 25 13 23 15 29 12 22 14 26 6 11 4-27 5-14 6-8 8-8 13-6 4-1h17l15 5 12 11 6 9 4 10v21l-7 60-4 21-6 15-10 16-9 10-9 8-12 7-15 6-16 3-15-1-6-3-10-19-16-29-15-28-12-22-15-28-13-23-3-7-3 21-7 63-4 15-6 14-7 11-11 12-14 11-16 8-14 4h-29l-2-1-5-17-13-36-20-57-14-39-10-29-12-34-1 2-2 20-9 77-8 74-5 17-9 12-7 6-11 5-5 1h-15l-13-4-11-7-8-9-5-11-1-6v-20l13-113 6-52 11-97 4-28 4-12 7-13 9-14 9-9 14-9 15-6z" fill="#AE6FC4"/>
<path transform="translate(1032,1211)" d="m0 0h36l2 1 5 15 13 50 2 5 4-15 12-48 4-8h40l4 8 4 13 10 43 2 7h1l8-31 9-32 4-8h36l1 1-1 11-12 43-14 49-5 12-5 5h-35l-5-2-4-6-8-27-9-34-1-1-7 24-10 35-5 9-3 2h-31l-8-1-4-5-6-18-12-43-11-41-2-12z" fill="#B15C7C"/>
<path transform="translate(1293,1207)" d="m0 0h28l19 5 14 7 10 9 6 8 6 13 3 17v14l-3 14-8 16-11 11-14 8-13 5-10 2h-27l-15-4-17-9-12-11-6-9-5-14-1-6v-24l2-10 4-10 7-10 7-7 11-7 12-5z" fill="#B15C7C"/>
<path transform="translate(754,915)" d="m0 0 6 2 2 1v2l7-1h20l1-1h18l4 2 9 1 5-1 3 1 5-1 4 8v16l-11 100-5 17-9 12-7 6-11 5-5 1h-15l-13-4-11-7-8-9-5-11-1-6v-20l11-96h2l1-11z" fill="#C259B7"/>
<path transform="translate(1402,1211)" d="m0 0h77l17 4 13 7 8 8 4 8 2 6v15l-6 10-9 7-6 3v2l7 6 10 16 11 20 1 7-9 2h-25l-5-3-6-7-9-15-8-14-3-1h-29l-1 38-1 1h-35l-2-5-1-55v-39l1-20z" fill="#B15C7C"/>
<path transform="translate(484,1211)" d="m0 0h78l17 4 12 6 6 5 6 9 3 7 1 5v10l-5 10-9 8-8 4 6 7 8 11 14 25 2 7-3 2-7 1h-24l-5-2-6-7-18-30-3-1-29-1v17l-1 22-2 1h-33l-2-1-1-15v-98l1-5z" fill="#B15C7C"/>
<path transform="translate(634,1211)" d="m0 0h35l9 10 7 11 9 13 13 19 10 14 1-66 4-1h32l2 2 1 6v45l-1 64-3 3-10 1h-22l-7-4-11-14-21-31-12-17-1-1-1 43-1 20-2 3-5 1h-23l-6-2-1-2-1-11v-100l1-5z" fill="#B15C7C"/>
<path transform="translate(384,1207)" d="m0 0h26l19 5 12 6 10 9 6 8 3 10-1 6-3 3-3 1h-24l-6-4-10-10-8-4-4-1h-7l-10 3-8 6-6 10-2 8v17l4 12 4 6 6 5 10 3h10l11-4 8-7 1-3-20-1-3-1-1-2v-20l2-5h60l2 5v22l-3 12-7 11-7 7-11 7-11 5-16 4h-22l-17-4-16-8-11-9-9-14-5-17-1-6v-10l2-14 4-12 6-11 10-10 14-8 16-5z" fill="#B15C7C"/>
<path transform="translate(785,1211)" d="m0 0h112l1 4v19l-1 5-2 1h-75v13l1 1 57 1 1 2v26l-2 1h-57v18h72l6 2v20l-1 7h-114l-1-1-1-22v-79l1-17z" fill="#B15C7C"/>
<path transform="translate(1547,1211)" d="m0 0h35l1 1 1 8v35l19-1 5-4 8-14 11-19 5-6h36l3 1-3 9-12 23-7 11-14 14 8 5 9 11 10 18 11 21 1 6-11 2h-23l-6-3-6-8-12-23-7-10-7-3-18-1v24l-1 21-3 2-26 1-7-2-1-2-1-12v-96l1-8z" fill="#B15C7C"/>
<path transform="translate(838,672)" d="m0 0h27l4 4v2h-2l-2 25-11 91-8 1-7-3-7 2h-25l-7 3-6 1-5-1-6 1v-2l-4 1h-8l-6-3v5h-1l1-16 5-39 4-16 8-15 9-14 9-9 14-9 15-6z" fill="#74B5F7"/>
<path transform="translate(1009,963)" d="m0 0h13l4 3 1 4v14l-3 25-4 15-6 14-7 11-11 12-14 11-16 8-14 4h-29l-1-2v-8l3-14 9-82 1-7h1v9l6-9h5v-2l6 1 6-2 14-1 11-3h16z" fill="#C259B6"/>
<path transform="translate(1023,788)" d="m0 0h22v15l-8 72-5 2h-21l-16 3-11 1-9 2h-8l-16 5-4 2-1 2h-2l-1-4 2-9 5-28 7-16 9-13 11-12 12-9 16-8z" fill="#74B5F7"/>
<path transform="translate(909,1211)" d="m0 0h117l2 5 1 16-2 7-2 1h-39v89l-1 2h-35l-1-1-1-8-1-81-37-1-3-2-1-20 1-6z" fill="#B15C7C"/>
<path transform="translate(1173,883)" d="m0 0h17l15 5 12 11 6 9 4 10-1 19-2 5-15 7-12 2-9 4-17 4-4 2-17 4-8 4-5-1-3-2-1-15 1-1 1-18 3-16 5-12 9-10 6-5 11-5z" fill="#C259B6"/>
<path transform="translate(1218 1e3)" d="m0 0 1 4-4 17-7 16-8 12-9 10-9 8-12 7-15 6-16 3-15-1-5-2 2-24 4-25 1-2 11-1 15-4 10-2 4-2 16-4 16-3 12-6 6-5h2z" fill="#74B5F7"/>
<path transform="translate(1305,1235)" d="m0 0 11 1 10 5 8 9 3 7 1 6v16l-3 11-6 9-9 6-7 2h-11l-11-4-7-6-5-10-2-9v-14l3-11 4-7 8-7 7-3z" fill="#FDFDFD"/>
<path transform="translate(1438,1239)" d="m0 0h33l7 3 4 4 1 2v6l-6 7-5 2h-34l-2-2v-21z" fill="#FDFDFD"/>
<path transform="translate(522,1239)" d="m0 0h32l7 2 5 6v7l-5 7-6 2h-34l-2-3v-10l1-10z" fill="#FDFDFD"/>
</svg>
